<svg width="26" height="24" viewBox="0 0 26 24" fill="none" xmlns="http://www.w3.org/2000/svg">
<path d="M23.8129 1L14.4373 7.93729L16.1807 3.84892L23.8129 1Z" fill="#E17726" stroke="#E17726" stroke-width="0.25" stroke-linecap="round" stroke-linejoin="round"/>
<path d="M2.18701 1L11.4792 8.00204L9.8192 3.84891L2.18701 1Z" fill="#E27625" stroke="#E27625" stroke-width="0.25" stroke-linecap="round" stroke-linejoin="round"/>
<path d="M20.4372 17.0854L17.9426 20.8963L23.2842 22.367L24.8144 17.1687L20.4372 17.0854Z" fill="#E27625" stroke="#E27625" stroke-width="0.25" stroke-linecap="round" stroke-linejoin="round"/>
<path d="M1.19482 17.1687L2.71568 22.367L8.04802 20.8963L5.56268 17.0854L1.19482 17.1687Z" fill="#E27625" stroke="#E27625" stroke-width="0.25" stroke-linecap="round" stroke-linejoin="round"/>
<path d="M7.76036 10.6472L6.27661 12.8857L11.5625 13.1262L11.3864 7.43759L7.76036 10.6472Z" fill="#E27625" stroke="#E27625" stroke-width="0.25" stroke-linecap="round" stroke-linejoin="round"/>
<path d="M18.2391 10.6473L14.5576 7.37289L14.437 13.1262L19.7229 12.8857L18.2391 10.6473Z" fill="#E27625" stroke="#E27625" stroke-width="0.25" stroke-linecap="round" stroke-linejoin="round"/>
<path d="M8.04785 20.896L11.2472 19.3513L8.493 17.2054L8.04785 20.896Z" fill="#E27625" stroke="#E27625" stroke-width="0.25" stroke-linecap="round" stroke-linejoin="round"/>
<path d="M14.7527 19.3513L17.9428 20.896L17.5069 17.2054L14.7527 19.3513Z" fill="#E27625" stroke="#E27625" stroke-width="0.25" stroke-linecap="round" stroke-linejoin="round"/>
<path d="M17.9428 20.8962L14.7527 19.3516L15.0123 21.4235L14.9845 22.3022L17.9428 20.8962Z" fill="#D5BFB2" stroke="#D5BFB2" stroke-width="0.25" stroke-linecap="round" stroke-linejoin="round"/>
<path d="M8.04785 20.8962L11.0154 22.3022L10.9969 21.4235L11.2472 19.3516L8.04785 20.8962Z" fill="#D5BFB2" stroke="#D5BFB2" stroke-width="0.25" stroke-linecap="round" stroke-linejoin="round"/>
<path d="M11.0712 15.8363L8.41895 15.0593L10.2922 14.1991L11.0712 15.8363Z" fill="#233447" stroke="#233447" stroke-width="0.25" stroke-linecap="round" stroke-linejoin="round"/>
<path d="M14.929 15.8363L15.708 14.1991L17.5905 15.0593L14.929 15.8363Z" fill="#233447" stroke="#233447" stroke-width="0.25" stroke-linecap="round" stroke-linejoin="round"/>
<path d="M8.04804 20.8963L8.51175 17.0854L5.56274 17.1687L8.04804 20.8963Z" fill="#CC6228" stroke="#CC6228" stroke-width="0.25" stroke-linecap="round" stroke-linejoin="round"/>
<path d="M17.4883 17.0854L17.9427 20.8963L20.4373 17.1687L17.4883 17.0854Z" fill="#CC6228" stroke="#CC6228" stroke-width="0.25" stroke-linecap="round" stroke-linejoin="round"/>
<path d="M19.7229 12.8856L14.437 13.1261L14.9285 15.8363L15.7075 14.1991L17.59 15.0593L19.7229 12.8856Z" fill="#CC6228" stroke="#CC6228" stroke-width="0.25" stroke-linecap="round" stroke-linejoin="round"/>
<path d="M8.4188 15.0593L10.2921 14.1991L11.0711 15.8363L11.5625 13.1261L6.27661 12.8856L8.4188 15.0593Z" fill="#CC6228" stroke="#CC6228" stroke-width="0.25" stroke-linecap="round" stroke-linejoin="round"/>
<path d="M6.27686 12.8856L8.49326 17.2053L8.41902 15.0593L6.27686 12.8856Z" fill="#E27525" stroke="#E27525" stroke-width="0.25" stroke-linecap="round" stroke-linejoin="round"/>
<path d="M17.5905 15.0593L17.5071 17.2053L19.7235 12.8856L17.5905 15.0593Z" fill="#E27525" stroke="#E27525" stroke-width="0.25" stroke-linecap="round" stroke-linejoin="round"/>
<path d="M11.5628 13.1261L11.0713 15.8363L11.6926 19.0367L11.8317 14.8188L11.5628 13.1261Z" fill="#E27525" stroke="#E27525" stroke-width="0.25" stroke-linecap="round" stroke-linejoin="round"/>
<path d="M14.4374 13.1261L14.1777 14.8096L14.3076 19.0367L14.9289 15.8363L14.4374 13.1261Z" fill="#E27525" stroke="#E27525" stroke-width="0.25" stroke-linecap="round" stroke-linejoin="round"/>
<path d="M14.9289 15.8365L14.3076 19.0368L14.7528 19.3513L17.507 17.2054L17.5905 15.0594L14.9289 15.8365Z" fill="#F5841F" stroke="#F5841F" stroke-width="0.25" stroke-linecap="round" stroke-linejoin="round"/>
<path d="M8.41895 15.0594L8.49318 17.2054L11.2474 19.3513L11.6925 19.0368L11.0712 15.8365L8.41895 15.0594Z" fill="#F5841F" stroke="#F5841F" stroke-width="0.25" stroke-linecap="round" stroke-linejoin="round"/>
<path d="M14.9845 22.3018L15.0123 21.4231L14.7712 21.2196H11.2287L10.9969 21.4231L11.0154 22.3018L8.04785 20.8959L9.08649 21.7468L11.1916 23.1991H14.799L16.9134 21.7468L17.9427 20.8959L14.9845 22.3018Z" fill="#C0AC9D" stroke="#C0AC9D" stroke-width="0.25" stroke-linecap="round" stroke-linejoin="round"/>
<path d="M14.7526 19.3517L14.3075 19.0373H11.6923L11.2472 19.3517L10.9968 21.4237L11.2287 21.2202H14.7712L15.0123 21.4237L14.7526 19.3517Z" fill="#161616" stroke="#161616" stroke-width="0.25" stroke-linecap="round" stroke-linejoin="round"/>
<path d="M24.2117 8.39051L25 4.56114L23.8129 1L14.7527 7.70608L18.2395 10.6474L23.1638 12.0812L24.2488 10.814L23.7759 10.4717L24.527 9.78727L23.9521 9.34327L24.7032 8.76977L24.2117 8.39051Z" fill="#763E1A" stroke="#763E1A" stroke-width="0.25" stroke-linecap="round" stroke-linejoin="round"/>
<path d="M1 4.56114L1.79753 8.39051L1.28748 8.76977L2.04791 9.34327L1.47295 9.78727L2.22411 10.4717L1.75116 10.814L2.83617 12.0812L7.76047 10.6474L11.2473 7.70608L2.18702 1L1 4.56114Z" fill="#763E1A" stroke="#763E1A" stroke-width="0.25" stroke-linecap="round" stroke-linejoin="round"/>
<path d="M23.164 12.081L18.2397 10.6473L19.7235 12.8858L17.5071 17.2054L20.4375 17.1684H24.8146L23.164 12.081Z" fill="#F5841F" stroke="#F5841F" stroke-width="0.25" stroke-linecap="round" stroke-linejoin="round"/>
<path d="M7.76049 10.6473L2.83624 12.081L1.19482 17.1684H5.56268L8.4931 17.2054L6.27674 12.8858L7.76049 10.6473Z" fill="#F5841F" stroke="#F5841F" stroke-width="0.25" stroke-linecap="round" stroke-linejoin="round"/>
<path d="M14.4373 13.1265L14.7526 7.70616L16.1807 3.84906H9.81909L11.2472 7.70616L11.5625 13.1265L11.6831 14.8285L11.6923 19.0371H14.3075L14.3168 14.8285L14.4373 13.1265Z" fill="#F5841F" stroke="#F5841F" stroke-width="0.25" stroke-linecap="round" stroke-linejoin="round"/>
</svg>
