<svg width="24" height="15" viewBox="0 0 24 15" fill="none" xmlns="http://www.w3.org/2000/svg">
<path d="M4.91499 2.90054C8.82789 -0.930511 15.1719 -0.930511 19.0848 2.90054L19.5558 3.36162C19.7514 3.55317 19.7514 3.86374 19.5558 4.05529L17.9448 5.63253C17.847 5.72831 17.6884 5.72831 17.5906 5.63253L16.9425 4.99804C14.2128 2.3254 9.78703 2.3254 7.0573 4.99804L6.36329 5.67753C6.26547 5.7733 6.10687 5.7733 6.00904 5.67753L4.39811 4.10029C4.20246 3.90873 4.20246 3.59816 4.39811 3.40661L4.91499 2.90054ZM22.4164 6.16244L23.8502 7.56619C24.0458 7.75775 24.0458 8.06831 23.8502 8.25987L17.3853 14.5896C17.1897 14.7811 16.8725 14.7811 16.6768 14.5896C16.6768 14.5896 16.6768 14.5896 16.6768 14.5896L12.0885 10.0972C12.0396 10.0493 11.9603 10.0493 11.9114 10.0972C11.9114 10.0972 11.9114 10.0972 11.9114 10.0972L7.32315 14.5896C7.12751 14.7811 6.81031 14.7811 6.61466 14.5896C6.61466 14.5896 6.61466 14.5896 6.61466 14.5896L0.149663 8.25978C-0.0459815 8.06823 -0.0459815 7.75766 0.149663 7.56611L1.5834 6.16236C1.77905 5.97081 2.09625 5.97081 2.29189 6.16236L6.88029 10.6548C6.9292 10.7027 7.0085 10.7027 7.05742 10.6548C7.05742 10.6548 7.05742 10.6548 7.05742 10.6548L11.6456 6.16236C11.8412 5.9708 12.1584 5.9708 12.3541 6.16235C12.3541 6.16235 12.3541 6.16235 12.3541 6.16235L16.9425 10.6548C16.9914 10.7027 17.0707 10.7027 17.1196 10.6548L21.7079 6.16244C21.9036 5.97089 22.2208 5.97089 22.4164 6.16244Z" fill="#3B99FC"/>
</svg>
